# xmcd CD database file
#
# Track frame offsets:
#	151
#	13537
#	27725
#	42791
#	64026
#	76348
#	100023
#	116638
#	129757
#	142077
#	155963
#	170060
#	183388
#	196114
#	207910
#	220480
#	231934
#	243560
#	256608
#	270506
#
# Disc length: 3789 seconds
#
# Revision: 1
# Processed by: cddbd v1.5.2PL0 Copyright (c) Steve Scherf et al.
# Submitted via: CDex 1.51
#
DISCID=1d0ecb14
DTITLE=Various Artist - The Years of the Blues  - CD2
DYEAR=2001
DGENRE=Blues
TTITLE0=Questionnaire Blues - BB King
TTITLE1=Rollin' Stone- Muddy Waters
TTITLE2=Ramblin' by Myself - John Lee Hooker
TTITLE3=Back Water Blues - Big Bill Broonzy
TTITLE4=Carrie Lee - JB Lenoir
TTITLE5=Four O'Clock Blues - Jimmy Yancey and Estelle "Mama" Yancey
TTITLE6=Irene Goodnight - Leadbelly
TTITLE7=Country Boy Blues - Lowell Fulson
TTITLE8=Mistreted Blues - Lightnin' Hopkins
TTITLE9=Tomorrow Night - Lonnie Johnson
TTITLE10=Blues After Hours - Pee Wee Crayton
TTITLE11=Chicago Breakdown - Big Maceo
TTITLE12=Baby Please Don't Go - Big Joe Williams
TTITLE13=In My Girlish Days - Memphis Minnie
TTITLE14=Junker Blues - Champion Jack Dupree
TTITLE15=It Hurts Me Too - Tampa Red
TTITLE16=Jitterbug Rag - Blind Boy Fuller
TTITLE17=Preaching Blues - Robert Johnson
TTITLE18=Good Morning Schoolgirls - Sonny Boy Williamson
TTITLE19=Gulf Coast Blues - Bessie Smith
EXTD=Selection\nThe Years of the Blues\nA Special Celebration with B.B. King\nCD2 YEAR: 2001
EXTT0=
EXTT1=
EXTT2=
EXTT3=
EXTT4=
EXTT5=
EXTT6=
EXTT7=
EXTT8=
EXTT9=
EXTT10=
EXTT11=
EXTT12=
EXTT13=
EXTT14=
EXTT15=
EXTT16=
EXTT17=
EXTT18=
EXTT19=
PLAYORDER=
